<svg width="200" height="201" viewBox="0 0 200 201" fill="none" xmlns="http://www.w3.org/2000/svg">
<path d="M37.6007 0L140.412 0C157.354 0 165.166 21.0643 152.323 32.112L49.5112 120.544C37.6696 130.73 19.3358 122.317 19.3358 106.697L19.3358 18.2648C19.3358 8.17745 27.5133 0 37.6007 0Z" fill="#3F3F3F"/>
<path d="M98.9203 100.994L20.959 167.955C8.10222 178.997 15.9115 200.075 32.8596 200.075L168.417 200.075C184.036 200.075 192.449 181.741 182.264 169.9L124.668 102.939C118.093 95.2955 106.569 94.4248 98.9203 100.994Z" fill="#111111"/>
<path d="M136.846 85.8941L159.232 111.958C165.858 119.672 178.505 114.986 178.504 104.817L178.504 59.4979C178.504 50.1262 167.503 45.0785 160.398 51.1899L138.013 70.4454C133.426 74.3903 132.904 81.3051 136.846 85.8941Z" fill="#727272"/>
</svg>
