<svg width="190" height="220" viewBox="0 0 190 220" fill="none" xmlns="http://www.w3.org/2000/svg">
<path d="M26.1725 0L138.751 0C157.302 0 165.857 23.0655 151.793 35.1626L39.2145 131.996C26.248 143.149 6.17249 133.937 6.17249 116.834L6.17249 20C6.17249 8.95431 15.1268 0 26.1725 0Z" fill="#FCBC55"/>
<path d="M93.318 110.588L7.95024 183.91C-6.12794 196.002 2.42327 219.082 20.9814 219.082L169.416 219.082C186.52 219.082 195.732 199.007 184.579 186.04L121.512 112.718C114.312 104.348 101.693 103.395 93.318 110.588Z" fill="#1CA8FF"/>
<path d="M134.846 94.054L159.359 122.593C166.614 131.04 180.463 125.909 180.462 114.774L180.462 65.1501C180.462 54.8881 168.416 49.3609 160.636 56.0528L136.124 77.1377C131.102 81.4573 130.53 89.0291 134.846 94.054Z" fill="#EE76EC"/>
</svg>
