<svg width="280" height="67" viewBox="0 0 280 67" fill="none" xmlns="http://www.w3.org/2000/svg">
<path d="M7.90376 0L41.9002 0C47.5023 0 50.0857 6.96532 45.8387 10.6184L11.8422 39.8603C7.92656 43.2283 1.86415 40.4463 1.86415 35.2815L1.86415 6.03961C1.86415 2.70402 4.56818 0 7.90376 0Z" fill="#3F3F3F"/>
<path d="M28.1802 33.3955L2.40084 55.5373C-1.8505 59.1888 0.731808 66.1586 6.336 66.1586L51.1605 66.1586C56.3253 66.1586 59.1073 60.0962 55.7393 56.1805L36.6942 34.0387C34.5201 31.5112 30.7093 31.2233 28.1802 33.3955Z" fill="#111111"/>
<path d="M40.7207 28.4025L48.1232 37.0208C50.3141 39.5716 54.496 38.0222 54.4959 34.6596L54.4957 19.6741C54.4957 16.5751 50.8582 14.906 48.5089 16.9269L41.1066 23.2941C39.5901 24.5985 39.4174 26.885 40.7207 28.4025Z" fill="#727272"/>
<path d="M249.878 25.022H258.372V31.8171L257.999 32.8115V39.4409L258.372 41.3883V55.5172H249.878V25.022ZM255.679 36.872C256.038 34.3031 256.784 32.0933 257.916 30.2426C259.076 28.3643 260.54 26.9141 262.308 25.8921C264.076 24.8425 266.079 24.3176 268.316 24.3176C270.636 24.3176 272.666 24.8425 274.407 25.8921C276.175 26.9418 277.542 28.4058 278.509 30.2841C279.503 32.1624 280 34.3584 280 36.872C280 39.3304 279.503 41.5126 278.509 43.4186C277.542 45.2969 276.175 46.7609 274.407 47.8105C272.666 48.8326 270.636 49.3436 268.316 49.3436C266.079 49.3436 264.076 48.8326 262.308 47.8105C260.54 46.7609 259.09 45.2969 257.958 43.4186C256.825 41.5402 256.065 39.3581 255.679 36.872ZM271.465 36.872C271.465 35.6843 271.216 34.6346 270.719 33.7231C270.25 32.8115 269.573 32.0933 268.689 31.5685C267.833 31.0437 266.852 30.7813 265.747 30.7813C264.615 30.7813 263.537 31.0437 262.515 31.5685C261.493 32.0933 260.595 32.8115 259.822 33.7231C259.049 34.6346 258.455 35.6843 258.04 36.872C258.455 38.0322 259.049 39.068 259.822 39.9796C260.595 40.8911 261.493 41.6093 262.515 42.1341C263.537 42.6313 264.615 42.8799 265.747 42.8799C266.852 42.8799 267.833 42.6313 268.689 42.1341C269.573 41.6093 270.25 40.8911 270.719 39.9796C271.216 39.068 271.465 38.0322 271.465 36.872Z" fill="black"/>
<path d="M222.609 34.8005C222.609 36.2092 222.871 37.4384 223.396 38.4881C223.948 39.5101 224.749 40.2973 225.799 40.8498C226.876 41.4022 228.188 41.6784 229.735 41.6784C231.31 41.6784 232.622 41.4022 233.671 40.8498C234.721 40.2973 235.508 39.5101 236.033 38.4881C236.558 37.4384 236.82 36.2092 236.82 34.8005V17.6055H245.438V35.2148C245.438 38.0599 244.776 40.5459 243.45 42.6729C242.151 44.7722 240.328 46.4157 237.98 47.6035C235.632 48.7636 232.884 49.3437 229.735 49.3437C226.614 49.3437 223.865 48.7636 221.49 47.6035C219.142 46.4157 217.305 44.7722 215.979 42.6729C214.681 40.5459 214.032 38.0599 214.032 35.2148V17.6055H222.609V34.8005Z" fill="black"/>
<path d="M192.672 16.7767H201.166V48.6807H192.672V16.7767Z" fill="black"/>
<path d="M176.124 49.3436C173.251 49.3436 170.682 48.8187 168.417 47.7691C166.18 46.7194 164.412 45.2555 163.114 43.3771C161.816 41.4712 161.167 39.2614 161.167 36.7477C161.167 34.2893 161.788 32.1348 163.031 30.2841C164.274 28.4058 165.973 26.9418 168.127 25.8921C170.31 24.8425 172.768 24.3176 175.503 24.3176C178.348 24.3176 180.765 24.9391 182.753 26.1821C184.77 27.3975 186.317 29.1239 187.394 31.3614C188.499 33.5988 189.051 36.2367 189.051 39.2752H168.003V34.1788H184.286L181.51 35.9605C181.4 34.7451 181.096 33.7231 180.599 32.8944C180.102 32.0381 179.439 31.389 178.61 30.947C177.809 30.5051 176.842 30.2841 175.71 30.2841C174.467 30.2841 173.403 30.5327 172.519 31.0299C171.635 31.5271 170.945 32.2176 170.448 33.1016C169.95 33.9579 169.702 34.9661 169.702 36.1262C169.702 37.6178 170.033 38.8885 170.696 39.9381C171.387 40.9602 172.381 41.7474 173.679 42.2998C175.005 42.8523 176.621 43.1285 178.527 43.1285C180.267 43.1285 181.994 42.9075 183.706 42.4656C185.447 41.996 187.021 41.3469 188.43 40.5182V45.9046C186.8 47.0095 184.936 47.8658 182.836 48.4735C180.765 49.0535 178.527 49.3436 176.124 49.3436Z" fill="black"/>
<path d="M146.981 44.6617L144.08 44.6202L152.284 25.0221H161.317L150.254 48.6807H140.6L129.537 25.0221H138.901L146.981 44.6617Z" fill="black"/>
<path d="M116.887 49.3436C114.015 49.3436 111.446 48.8187 109.181 47.7691C106.943 46.7194 105.175 45.2555 103.877 43.3771C102.579 41.4712 101.93 39.2614 101.93 36.7477C101.93 34.2893 102.551 32.1348 103.794 30.2841C105.037 28.4058 106.736 26.9418 108.891 25.8921C111.073 24.8425 113.531 24.3176 116.266 24.3176C119.111 24.3176 121.528 24.9391 123.517 26.1821C125.533 27.3975 127.08 29.1239 128.157 31.3614C129.262 33.5988 129.815 36.2367 129.815 39.2752H108.766V34.1788H125.05L122.274 35.9605C122.163 34.7451 121.859 33.7231 121.362 32.8944C120.865 32.0381 120.202 31.389 119.373 30.947C118.572 30.5051 117.605 30.2841 116.473 30.2841C115.23 30.2841 114.166 30.5327 113.283 31.0299C112.399 31.5271 111.708 32.2176 111.211 33.1016C110.714 33.9579 110.465 34.9661 110.465 36.1262C110.465 37.6178 110.796 38.8885 111.459 39.9381C112.15 40.9602 113.144 41.7474 114.443 42.2998C115.769 42.8523 117.384 43.1285 119.29 43.1285C121.031 43.1285 122.757 42.9075 124.47 42.4656C126.21 41.996 127.784 41.3469 129.193 40.5182V45.9046C127.563 47.0095 125.699 47.8658 123.6 48.4735C121.528 49.0535 119.29 49.3436 116.887 49.3436Z" fill="black"/>
<path d="M81.2501 17.6055V44.8688L77.3968 41.0569H100.641V48.6807H72.6733V17.6055H81.2501Z" fill="black"/>
</svg>
